inDegrees=no
num_controls=7
num_derivatives=13
num_iterations=110
num_multipliers=7
num_parameters=0
num_slacks=7
num_states=26
objective=0.496925
objective_accelerations=0.043076
objective_balance=0.003635
objective_effort=0.039652
objective_height=0.405044
objective_ligament=0.005517
solver_duration=1359.846718
status=Solve_Succeeded
success=true
DataType=double
version=3
OpenSimVersion=4.5
endheader
time	/jointset/ground_pelvis/pelvis_tilt/value	/jointset/ground_pelvis/pelvis_tx/value	/jointset/ground_pelvis/pelvis_ty/value	/jointset/hip_r/hip_flexion_r/value	/jointset/hip_r/hip_adduction_r/value	/jointset/hip_r/hip_rotation_r/value	/jointset/back/lumbar_extension/value	/jointset/patellofemoral_r/patellar_flexion_r/value	/jointset/knee_r/knee_flexion_r/value	/jointset/knee_r/knee_adduction_r/value	/jointset/knee_r/knee_rotation_r/value	/jointset/ankle_r/ankle_angle_r/value	/jointset/subtalar_r/subtalar_angle_r/value	/jointset/ground_pelvis/pelvis_tilt/speed	/jointset/ground_pelvis/pelvis_tx/speed	/jointset/ground_pelvis/pelvis_ty/speed	/jointset/hip_r/hip_flexion_r/speed	/jointset/hip_r/hip_adduction_r/speed	/jointset/hip_r/hip_rotation_r/speed	/jointset/back/lumbar_extension/speed	/jointset/patellofemoral_r/patellar_flexion_r/speed	/jointset/knee_r/knee_flexion_r/speed	/jointset/knee_r/knee_adduction_r/speed	/jointset/knee_r/knee_rotation_r/speed	/jointset/ankle_r/ankle_angle_r/speed	/jointset/subtalar_r/subtalar_angle_r/speed	/forceset/tau_hip_flexion_r	/forceset/tau_hip_adduction_r	/forceset/tau_hip_rotation_r	/forceset/tau_knee_flexion_r	/forceset/tau_ankle_angle_r	/forceset/tau_subtalar_angle_r	/forceset/tau_lumbar_extension	lambda_cid13_p0	lambda_cid14_p0	lambda_cid14_p1	lambda_cid14_p2	lambda_cid14_p3	lambda_cid14_p4	lambda_cid14_p5	/jointset/ground_pelvis/pelvis_tilt/accel	/jointset/ground_pelvis/pelvis_tx/accel	/jointset/ground_pelvis/pelvis_ty/accel	/jointset/hip_r/hip_flexion_r/accel	/jointset/hip_r/hip_adduction_r/accel	/jointset/hip_r/hip_rotation_r/accel	/jointset/back/lumbar_extension/accel	/jointset/patellofemoral_r/patellar_flexion_r/accel	/jointset/knee_r/knee_flexion_r/accel	/jointset/knee_r/knee_adduction_r/accel	/jointset/knee_r/knee_rotation_r/accel	/jointset/ankle_r/ankle_angle_r/accel	/jointset/subtalar_r/subtalar_angle_r/accel	gamma_cid13_p0	gamma_cid14_p0	gamma_cid14_p1	gamma_cid14_p2	gamma_cid14_p3	gamma_cid14_p4	gamma_cid14_p5
1.5	-0.1525813943217894	0.04126208778323182	0.8502243746500563	0.7897194070136903	-0.2220252696132375	-0.139966086384715	-0.2881497707241762	0.724642112681056	0.7246421126810906	0.01181782567361515	0.1745130417548237	0.2634207663264379	0.06757355168416049	0.3485965598122074	0.1617415426040089	0.4173435780504184	-1.787852070897843	0.006796303514966112	-0.2492411547028475	0.7011769916547446	-1.962911010938977	-1.962911010939169	0.3694567717988232	1.786416262599422e-06	-0.6255087007871394	-0.1779497958905176	-0.09408930339512457	-0.01636563297690479	0.01017935428094622	-0.3323858367217469	0.066717984002843	-0.01033771231457451	0.1410546097478754	-29.89033293005129	-19.73539396521726	-4.597457811426516	-2.630989998394472	2.181064822603719	-653.1783206130782	57.03199251612307	0.1901439113396594	0.3655313075926531	-0.576420743046369	-0.8609584540085805	-0.112058186219296	-0.6006677140809848	1.341712465143223	-1.091421382324364	-1.091421382324361	0.4669643720547303	-0.08065402074714256	-0.579755714547376	-0.1569701743676874	4.026625140126258e-08	-3.638728734460403e-07	-2.914193873086234e-06	-2.827565658932341e-06	5.427990413434628e-07	-2.882051471945408e-07	-6.17186049477131e-07
1.51	-0.1490864582496635	0.04289751122359695	0.8543680771923063	0.7718004421360869	-0.2219622687351062	-0.1424943536816516	-0.2810721082045803	0.7049611801498943	0.704961180149868	0.01553090229419968	0.1745129974312069	0.2571377949645925	0.06578755005069335	0.3503388526731752	0.1653138262082615	0.4113077332105691	-1.795683657214878	0.005811674543182259	-0.2564102728648819	0.7142322973968563	-1.972982464822524	-1.972982464822664	0.373132894407939	-3.89541526471353e-06	-0.630989792298413	-0.179208562461607	-0.08757179853321413	-0.01824688221029317	0.00947640143819412	-0.3287902916270756	0.07016179376204448	-0.01093209844302249	0.1350999006298555	-31.03844424791686	-18.43819944506809	-4.486594993667558	-2.810721895450257	1.740420324571624	-649.1482413579903	57.21292252887889	0.1584727912621471	0.3487867826640509	-0.6306082800339384	-0.7057125777814522	-0.09122771936702188	-0.7748924129332652	1.268957398576011	-0.9210606998299938	-0.9210606998222545	0.3135241846642818	0.0399239730085466	-0.517828950928407	-0.1048307105561769	3.969162808690221e-08	-3.676981130400921e-07	-2.884039677255198e-06	-2.889811035732886e-06	5.402418598748883e-07	-3.037355884970047e-07	-4.897149070288149e-07
1.52	-0.1455756590853717	0.04456779947916903	0.858448732901042	0.753810870623867	-0.2219090266400345	-0.1450942838693426	-0.2738675890735971	0.6851883224182032	0.6851883224181194	0.01927985773674057	0.1745129861367498	0.2508029040713322	0.06399006058909998	0.3517691782456207	0.1687145056453988	0.4047342113475201	-1.801973397821133	0.004844546903035722	-0.2635737328536613	0.7265483139322055	-1.981296051044474	-1.981296051044563	0.3766325361900267	8.392247770354052e-06	-0.6358926070701281	-0.1802473615157608	-0.08105429367130124	-0.02012813144368406	0.008773448595479995	-0.3251947465324043	0.07360560352124482	-0.01152648457147485	0.1291451915118387	-32.16890120610656	-17.14729722321378	-4.382243156318906	-2.9832339927685	1.322390377790529	-645.2055238989365	57.34110893144499	0.1277504536351677	0.3312104741695778	-0.6839561476862921	-0.5525893118524267	-0.1085579198918409	-0.5995360794299862	1.193854623790673	-0.7398478500047849	-0.7398478500048198	0.4316682066491329	-0.07706012183465927	-0.4641003666356022	-0.1129766709805425	4.642545251051136e-08	-3.289340768448128e-07	-2.683519491853981e-06	-2.589335795540408e-06	4.951249347089769e-07	-2.775463017161107e-07	-4.283960667282638e-07
1.53	-0.1420522056855679	0.04627119335058352	0.8624610133364132	0.7357662862037705	-0.2218655388562498	-0.1477644266926188	-0.2665434679595967	0.6653413452165261	0.6653413452164645	0.02306415246660465	0.1745124423689808	0.2444219087936032	0.06218300614182074	0.3528696693154016	0.1719303095563311	0.3976403277836167	-1.806675231779256	0.00388222987821693	-0.2705330042253708	0.7381530349803694	-1.987792483033937	-1.987792483033862	0.3801101746915955	-6.299302669166725e-05	-0.6401967012279921	-0.1810904284577045	-0.07470810524808809	-0.02175435161013308	0.007888406092030054	-0.3213754237245682	0.07671417000752111	-0.0120479949799599	0.1233402928169765	-33.26853010550409	-15.9758235349474	-4.266268255487437	-3.158611615567871	0.9821864729785968	-641.5122281283072	57.46551748757812	0.09341021908676005	0.3117427726619784	-0.7343705079187679	-0.3887629688192295	-0.08613406128066722	-0.7558983614363233	1.125349762168597	-0.5585186721853231	-0.5585186721606422	0.2879826226052539	0.03565132586307144	-0.3970382143378142	-0.05951801844381576	6.092450265571304e-08	-2.449189351233696e-07	-2.301985442534451e-06	-1.903469899792848e-06	4.047882818646454e-07	-2.070298038466496e-07	-4.37364047459712e-07
